<?xml version="1.0" standalone="no"?>
<!DOCTYPE svg PUBLIC "-//W3C//DTD SVG 20010904//EN"
 "http://www.w3.org/TR/2001/REC-SVG-20010904/DTD/svg10.dtd">
<svg version="1.0" xmlns="http://www.w3.org/2000/svg"
 width="307.000000pt" height="175.000000pt" viewBox="0 0 307.000000 175.000000"
 preserveAspectRatio="xMidYMid meet">
<metadata>
Created by potrace 1.15, written by Peter Selinger 2001-2017
</metadata>
<g transform="translate(0.000000,175.000000) scale(0.100000,-0.100000)"
fill="#000000" stroke="none">
<path d="M2202 1734 c-56 -39 -57 -43 -62 -509 l-5 -430 -144 177 c-153 188
-177 207 -241 193 -34 -7 -111 -89 -147 -157 -25 -45 -29 -107 -10 -150 12
-28 628 -788 665 -821 34 -30 91 -33 129 -5 34 24 646 772 669 817 17 32 18
129 1 157 -7 11 -32 46 -57 77 -52 67 -97 92 -146 82 -36 -6 -61 -32 -244
-257 l-95 -117 -5 437 c-5 465 -5 461 -56 501 -23 18 -41 21 -128 21 -76 0
-107 -4 -124 -16z"/>
<path d="M683 1718 c-34 -24 -646 -772 -669 -817 -17 -32 -18 -129 -1 -157 7
-11 32 -46 57 -77 52 -67 97 -92 146 -82 36 6 61 32 244 257 l95 117 5 -437
c5 -465 5 -461 56 -501 23 -18 41 -21 126 -21 110 0 137 10 166 64 15 27 18
81 22 461 l5 430 138 -170 c83 -101 153 -178 173 -189 54 -29 94 -16 151 50
88 100 112 175 80 246 -12 28 -628 788 -665 821 -34 30 -91 33 -129 5z"/>
</g>
</svg>
