<?xml version="1.0" encoding="UTF-8" standalone="no"?>
<!-- Created with Inkscape (http://www.inkscape.org/) -->

<svg
   xmlns:dc="http://purl.org/dc/elements/1.1/"
   xmlns:cc="http://creativecommons.org/ns#"
   xmlns:rdf="http://www.w3.org/1999/02/22-rdf-syntax-ns#"
   xmlns:svg="http://www.w3.org/2000/svg"
   xmlns="http://www.w3.org/2000/svg"
   xmlns:sodipodi="http://sodipodi.sourceforge.net/DTD/sodipodi-0.dtd"
   xmlns:inkscape="http://www.inkscape.org/namespaces/inkscape"
   width="40mm"
   height="80mm"
   viewBox="0 0 40 80"
   version="1.1"
   id="svg8"
   inkscape:version="0.92.4 (5da689c313, 2019-01-14)"
   sodipodi:docname="humidity_low.svg">
  <defs
     id="defs2">
	
	
	
</defs>
  <sodipodi:namedview
     id="base"
     pagecolor="#ffffff"
     bordercolor="#666666"
     borderopacity="1.0"
     inkscape:pageopacity="0.0"
     inkscape:pageshadow="2"
     inkscape:zoom="1.4"
     inkscape:cx="303.59276"
     inkscape:cy="87.279052"
     inkscape:document-units="mm"
     inkscape:current-layer="layer1"
     showgrid="false"
     inkscape:window-width="1920"
     inkscape:window-height="986"
     inkscape:window-x="2869"
     inkscape:window-y="-11"
     inkscape:window-maximized="1" />
  <metadata
     id="metadata5">
    <rdf:RDF>
      <cc:Work
         rdf:about="">
        <dc:format>image/svg+xml</dc:format>
        <dc:type
           rdf:resource="http://purl.org/dc/dcmitype/StillImage" />
        <dc:title></dc:title>
      </cc:Work>
    </rdf:RDF>
  </metadata>
  <g
     inkscape:label="Capa 1"
     inkscape:groupmode="layer"
     id="layer1"
     transform="translate(0,-217)">
    <path
       id="path10"
       d="m 36.797922,265.5243 -12.5767,-35.81426 c -0.55828,-1.58988 -2.05952,-2.65377 -3.74465,-2.65377 -1.68513,0 -3.18638,1.06389 -3.74439,2.65377 l -12.5766992,35.814 c -1.88304,5.36231 -1.078177,11.09689 2.208212,15.73398 3.286125,4.63656 8.4298872,7.29588 14.1131372,7.29588 5.68325,0 10.82755,-2.65932 14.11367,-7.29615 3.28586,-4.63656 4.09046,-10.3714 2.20742,-15.73345 z m -8.68363,11.14399 c -1.77852,2.50904 -4.56194,3.94838 -7.63746,3.94838 -3.07525,0 -5.85893,-1.43881 -7.637195,-3.94812 -1.778265,-2.5093 -2.213769,-5.61287 -1.195123,-8.51455 l 8.832318,-25.15103 8.83232,25.15103 c 1.01865,2.90195 0.58314,6.00498 -1.19486,8.51429 z"
       inkscape:connector-curvature="0"
       style="stroke-width:0.26458332" />
    <g
       id="g18"
       transform="matrix(0.26458333,0,0,0.26458333,35.573463,37.027635)">
</g>
    <g
       id="g20"
       transform="matrix(0.26458333,0,0,0.26458333,35.573463,37.027635)">
</g>
    <g
       id="g22"
       transform="matrix(0.26458333,0,0,0.26458333,35.573463,37.027635)">
</g>
    <g
       id="g24"
       transform="matrix(0.26458333,0,0,0.26458333,35.573463,37.027635)">
</g>
    <g
       id="g26"
       transform="matrix(0.26458333,0,0,0.26458333,35.573463,37.027635)">
</g>
    <g
       id="g28"
       transform="matrix(0.26458333,0,0,0.26458333,35.573463,37.027635)">
</g>
    <g
       id="g30"
       transform="matrix(0.26458333,0,0,0.26458333,35.573463,37.027635)">
</g>
    <g
       id="g32"
       transform="matrix(0.26458333,0,0,0.26458333,35.573463,37.027635)">
</g>
    <g
       id="g34"
       transform="matrix(0.26458333,0,0,0.26458333,35.573463,37.027635)">
</g>
    <g
       id="g36"
       transform="matrix(0.26458333,0,0,0.26458333,35.573463,37.027635)">
</g>
    <g
       id="g38"
       transform="matrix(0.26458333,0,0,0.26458333,35.573463,37.027635)">
</g>
    <g
       id="g40"
       transform="matrix(0.26458333,0,0,0.26458333,35.573463,37.027635)">
</g>
    <g
       id="g42"
       transform="matrix(0.26458333,0,0,0.26458333,35.573463,37.027635)">
</g>
    <g
       id="g44"
       transform="matrix(0.26458333,0,0,0.26458333,35.573463,37.027635)">
</g>
    <g
       id="g46"
       transform="matrix(0.26458333,0,0,0.26458333,28.357185,38.631252)">
</g>
  </g>
</svg>
