<?xml version="1.0" encoding="UTF-8" standalone="no"?>
<!-- Generator: Adobe Illustrator 19.0.0, SVG Export Plug-In . SVG Version: 6.00 Build 0)  -->

<svg
   xmlns:dc="http://purl.org/dc/elements/1.1/"
   xmlns:cc="http://creativecommons.org/ns#"
   xmlns:rdf="http://www.w3.org/1999/02/22-rdf-syntax-ns#"
   xmlns:svg="http://www.w3.org/2000/svg"
   xmlns="http://www.w3.org/2000/svg"
   xmlns:sodipodi="http://sodipodi.sourceforge.net/DTD/sodipodi-0.dtd"
   xmlns:inkscape="http://www.inkscape.org/namespaces/inkscape"
   version="1.1"
   id="Capa_1"
   x="0px"
   y="0px"
   viewBox="0 0 511.448 511.448"
   style="enable-background:new 0 0 511.448 511.448;"
   xml:space="preserve"
   sodipodi:docname="humidity_low.svg"
   inkscape:version="0.92.1 r15371"><metadata
     id="metadata55"><rdf:RDF><cc:Work
         rdf:about=""><dc:format>image/svg+xml</dc:format><dc:type
           rdf:resource="http://purl.org/dc/dcmitype/StillImage" /><dc:title></dc:title></cc:Work></rdf:RDF></metadata><defs
     id="defs53" /><sodipodi:namedview
     pagecolor="#ffffff"
     bordercolor="#666666"
     borderopacity="1"
     objecttolerance="10"
     gridtolerance="10"
     guidetolerance="10"
     inkscape:pageopacity="0"
     inkscape:pageshadow="2"
     inkscape:window-width="1366"
     inkscape:window-height="745"
     id="namedview51"
     showgrid="false"
     inkscape:zoom="0.46143499"
     inkscape:cx="-258.97472"
     inkscape:cy="255.724"
     inkscape:window-x="-8"
     inkscape:window-y="-8"
     inkscape:window-maximized="1"
     inkscape:current-layer="Capa_1" /><g
     id="g6"
     style="fill:#ac9393"><g
       id="g4"
       style="fill:#ac9393"><circle
         cx="303.724"
         cy="399.448"
         r="16"
         id="circle2"
         style="fill:#ac9393" /></g></g><g
     id="g12"
     style="fill:#ac9393"><g
       id="g10"
       style="fill:#ac9393"><circle
         cx="207.724"
         cy="239.448"
         r="16"
         id="circle8"
         style="fill:#ac9393" /></g></g><g
     id="g18"
     style="fill:#ac9393"><g
       id="g16"
       style="fill:#ac9393"><path
         d="M 344.556,112.216 C 318.38,78.84 291.34,44.344 269.516,7.32 c -5.76,-9.76 -21.824,-9.76 -27.552,0 -21.856,37.024 -48.896,71.52 -75.072,104.896 -53.056,67.68 -103.168,131.616 -103.168,207.232 0,105.888 86.112,192 192,192 105.888,0 192,-86.112 192,-192 0,-75.616 -50.112,-139.552 -103.168,-207.232 z m -136.832,79.232 c 26.464,0 48,21.536 48,48 0,26.464 -21.536,48 -48,48 -26.464,0 -48,-21.536 -48,-48 0,-26.464 21.536,-48 48,-48 z m -20.672,219.328 c -3.136,3.104 -7.232,4.672 -11.328,4.672 -4.096,0 -8.192,-1.568 -11.328,-4.672 -6.24,-6.24 -6.24,-16.384 0,-22.624 l 160,-160 c 6.24,-6.24 16.384,-6.24 22.624,0 6.24,6.24 6.272,16.384 0.032,22.624 z m 116.672,36.672 c -26.464,0 -48,-21.536 -48,-48 0,-26.464 21.536,-48 48,-48 26.464,0 48,21.536 48,48 0,26.464 -21.536,48 -48,48 z"
         id="path14"
         inkscape:connector-curvature="0"
         style="fill:#ac9393" /></g></g><g
     id="g20" /><g
     id="g22" /><g
     id="g24" /><g
     id="g26" /><g
     id="g28" /><g
     id="g30" /><g
     id="g32" /><g
     id="g34" /><g
     id="g36" /><g
     id="g38" /><g
     id="g40" /><g
     id="g42" /><g
     id="g44" /><g
     id="g46" /><g
     id="g48" /></svg>