<?xml version="1.0" encoding="UTF-8" standalone="no"?>
<!-- Generator: Adobe Illustrator 19.0.0, SVG Export Plug-In . SVG Version: 6.00 Build 0)  -->

<svg
   xmlns:dc="http://purl.org/dc/elements/1.1/"
   xmlns:cc="http://creativecommons.org/ns#"
   xmlns:rdf="http://www.w3.org/1999/02/22-rdf-syntax-ns#"
   xmlns:svg="http://www.w3.org/2000/svg"
   xmlns="http://www.w3.org/2000/svg"
   xmlns:sodipodi="http://sodipodi.sourceforge.net/DTD/sodipodi-0.dtd"
   xmlns:inkscape="http://www.inkscape.org/namespaces/inkscape"
   version="1.1"
   id="Capa_1"
   x="0px"
   y="0px"
   viewBox="0 0 511.448 511.448"
   style="enable-background:new 0 0 511.448 511.448;"
   xml:space="preserve"
   inkscape:version="0.91 r13725"
   sodipodi:docname="humidity_analog.svg"><metadata
     id="metadata55"><rdf:RDF><cc:Work
         rdf:about=""><dc:format>image/svg+xml</dc:format><dc:type
           rdf:resource="http://purl.org/dc/dcmitype/StillImage" /></cc:Work></rdf:RDF></metadata><defs
     id="defs53" /><sodipodi:namedview
     pagecolor="#ffffff"
     bordercolor="#666666"
     borderopacity="1"
     objecttolerance="10"
     gridtolerance="10"
     guidetolerance="10"
     inkscape:pageopacity="0"
     inkscape:pageshadow="2"
     inkscape:window-width="835"
     inkscape:window-height="388"
     id="namedview51"
     showgrid="false"
     inkscape:zoom="0.65256762"
     inkscape:cx="-186.67685"
     inkscape:cy="285.54205"
     inkscape:window-x="-8"
     inkscape:window-y="0"
     inkscape:window-maximized="0"
     inkscape:current-layer="Capa_1" /><g
     id="g3"><g
       id="g5"><circle
         cx="303.724"
         cy="399.448"
         r="16"
         id="circle7" /></g></g><g
     id="g9"><g
       id="g11"><circle
         cx="207.724"
         cy="239.448"
         r="16"
         id="circle13" /></g></g><g
     id="g15"><g
       id="g17"><path
         d="M 344.556,112.216 C 318.38,78.84 291.34,44.344 269.516,7.32 c -5.76,-9.76 -21.824,-9.76 -27.552,0 -21.856,37.024 -48.896,71.52 -75.072,104.896 -53.056,67.68 -103.168,131.616 -103.168,207.232 0,105.888 86.112,192 192,192 105.888,0 192,-86.112 192,-192 0,-75.616 -50.112,-139.552 -103.168,-207.232 z"
         id="path19"
         inkscape:connector-curvature="0"
         sodipodi:nodetypes="ccccsssc" /></g></g><g
     id="g21" /><g
     id="g23" /><g
     id="g25" /><g
     id="g27" /><g
     id="g29" /><g
     id="g31" /><g
     id="g33" /><g
     id="g35" /><g
     id="g37" /><g
     id="g39" /><g
     id="g41" /><g
     id="g43" /><g
     id="g45" /><g
     id="g47" /><g
     id="g49" /><path
     style="fill:none;fill-opacity:1;stroke:#ffffff;stroke-width:18.09086418;stroke-linecap:butt;stroke-linejoin:miter;stroke-miterlimit:4;stroke-dasharray:none;stroke-opacity:1"
     d="m 107.55147,326.21939 38.4572,0 c 21.66037,-2.17718 17.72253,100.78966 34.89634,100.90293 19.94142,-0.89953 13.71215,-266.97049 34.89633,-266.711 23.62151,-0.19719 20.90154,132.44913 35.60853,133.08279 16.36602,-0.56625 18.37361,-91.0735 38.45719,-91.63078 12.43391,0.79022 35.13374,189.26118 52.7006,189.8066 15.32084,-0.12417 17.19469,-97.24572 27.99064,-97.08499 8.54126,0.32093 9.88817,15.16627 19.58271,22.77401 8.41712,6.6053 20.64017,4.50304 27.9167,4.49706"
     id="path4517"
     inkscape:connector-curvature="0"
     sodipodi:nodetypes="ccccccccsc" /></svg>