<?xml version="1.0" encoding="UTF-8" standalone="no"?>
<!-- Generator: Adobe Illustrator 16.0.0, SVG Export Plug-In . SVG Version: 6.00 Build 0)  -->

<svg
   xmlns:dc="http://purl.org/dc/elements/1.1/"
   xmlns:cc="http://creativecommons.org/ns#"
   xmlns:rdf="http://www.w3.org/1999/02/22-rdf-syntax-ns#"
   xmlns:svg="http://www.w3.org/2000/svg"
   xmlns="http://www.w3.org/2000/svg"
   xmlns:sodipodi="http://sodipodi.sourceforge.net/DTD/sodipodi-0.dtd"
   xmlns:inkscape="http://www.inkscape.org/namespaces/inkscape"
   version="1.1"
   id="Capa_1"
   x="0px"
   y="0px"
   width="45.16px"
   height="45.16px"
   viewBox="0 0 45.16 45.16"
   style="enable-background:new 0 0 45.16 45.16;"
   xml:space="preserve"
   sodipodi:docname="sun_yellow.svg"
   inkscape:version="0.92.1 r15371"><metadata
     id="metadata77"><rdf:RDF><cc:Work
         rdf:about=""><dc:format>image/svg+xml</dc:format><dc:type
           rdf:resource="http://purl.org/dc/dcmitype/StillImage" /><dc:title></dc:title></cc:Work></rdf:RDF></metadata><defs
     id="defs75" /><sodipodi:namedview
     pagecolor="#ffffff"
     bordercolor="#666666"
     borderopacity="1"
     objecttolerance="10"
     gridtolerance="10"
     guidetolerance="10"
     inkscape:pageopacity="0"
     inkscape:pageshadow="2"
     inkscape:window-width="1366"
     inkscape:window-height="745"
     id="namedview73"
     showgrid="false"
     inkscape:zoom="5.2258636"
     inkscape:cx="22.58"
     inkscape:cy="22.58"
     inkscape:window-x="-8"
     inkscape:window-y="-8"
     inkscape:window-maximized="1"
     inkscape:current-layer="Capa_1" /><g
     id="g40"
     style="fill:#ffd42a"><g
       id="g38"
       style="fill:#ffd42a"><path
         d="m 22.58,11.269 c -6.237,0 -11.311,5.075 -11.311,11.312 0,6.237 5.074,11.312 11.311,11.312 6.236,0 11.311,-5.074 11.311,-11.312 0,-6.238 -5.075,-11.312 -11.311,-11.312 z"
         id="path2"
         inkscape:connector-curvature="0"
         style="fill:#ffd42a" /><g
         id="g36"
         style="fill:#ffd42a"><g
           id="g6"
           style="fill:#ffd42a"><path
             d="m 22.58,7.944 c -1.219,0 -2.207,-0.988 -2.207,-2.206 V 2.207 C 20.373,0.988 21.361,0 22.58,0 c 1.219,0 2.207,0.988 2.207,2.207 v 3.531 c 0,1.218 -0.989,2.206 -2.207,2.206 z"
             id="path4"
             inkscape:connector-curvature="0"
             style="fill:#ffd42a" /></g><g
           id="g10"
           style="fill:#ffd42a"><path
             d="m 22.58,37.215 c -1.219,0 -2.207,0.988 -2.207,2.207 v 3.53 c 0,1.22 0.988,2.208 2.207,2.208 1.219,0 2.207,-0.988 2.207,-2.208 v -3.53 c 0,-1.219 -0.989,-2.207 -2.207,-2.207 z"
             id="path8"
             inkscape:connector-curvature="0"
             style="fill:#ffd42a" /></g><g
           id="g14"
           style="fill:#ffd42a"><path
             d="m 32.928,12.231 c -0.861,-0.862 -0.861,-2.259 0,-3.121 l 2.497,-2.497 c 0.861,-0.861 2.259,-0.861 3.121,0 0.862,0.862 0.862,2.26 0,3.121 l -2.497,2.497 c -0.861,0.862 -2.258,0.862 -3.121,0 z"
             id="path12"
             inkscape:connector-curvature="0"
             style="fill:#ffd42a" /></g><g
           id="g18"
           style="fill:#ffd42a"><path
             d="m 12.231,32.93 c -0.862,-0.863 -2.259,-0.863 -3.121,0 l -2.497,2.496 c -0.861,0.861 -0.862,2.26 0,3.121 0.862,0.861 2.26,0.861 3.121,0 l 2.497,-2.498 c 0.862,-0.861 0.862,-2.259 0,-3.119 z"
             id="path16"
             inkscape:connector-curvature="0"
             style="fill:#ffd42a" /></g><g
           id="g22"
           style="fill:#ffd42a"><path
             d="m 37.215,22.58 c 0,-1.219 0.988,-2.207 2.207,-2.207 h 3.531 c 1.219,0 2.207,0.988 2.207,2.207 0,1.219 -0.988,2.206 -2.207,2.206 h -3.531 c -1.219,0 -2.207,-0.987 -2.207,-2.206 z"
             id="path20"
             inkscape:connector-curvature="0"
             style="fill:#ffd42a" /></g><g
           id="g26"
           style="fill:#ffd42a"><path
             d="m 7.944,22.58 c 0,-1.219 -0.988,-2.207 -2.207,-2.207 H 2.207 C 0.988,20.373 0,21.361 0,22.58 c 0,1.219 0.988,2.206 2.207,2.206 h 3.531 c 1.218,0 2.206,-0.987 2.206,-2.206 z"
             id="path24"
             inkscape:connector-curvature="0"
             style="fill:#ffd42a" /></g><g
           id="g30"
           style="fill:#ffd42a"><path
             d="m 32.928,32.93 c 0.862,-0.861 2.26,-0.861 3.121,0 l 2.497,2.497 c 0.862,0.86 0.862,2.259 0,3.12 -0.862,0.861 -2.259,0.861 -3.121,0 L 32.928,36.05 c -0.862,-0.862 -0.862,-2.259 0,-3.12 z"
             id="path28"
             inkscape:connector-curvature="0"
             style="fill:#ffd42a" /></g><g
           id="g34"
           style="fill:#ffd42a"><path
             d="m 12.231,12.231 c 0.862,-0.862 0.862,-2.259 0,-3.121 L 9.734,6.614 c -0.862,-0.862 -2.259,-0.862 -3.121,0 -0.862,0.861 -0.862,2.259 0,3.12 l 2.497,2.497 c 0.862,0.863 2.259,0.863 3.121,0 z"
             id="path32"
             inkscape:connector-curvature="0"
             style="fill:#ffd42a" /></g></g></g></g><g
     id="g42" /><g
     id="g44" /><g
     id="g46" /><g
     id="g48" /><g
     id="g50" /><g
     id="g52" /><g
     id="g54" /><g
     id="g56" /><g
     id="g58" /><g
     id="g60" /><g
     id="g62" /><g
     id="g64" /><g
     id="g66" /><g
     id="g68" /><g
     id="g70" /></svg>